<svg xmlns="http://www.w3.org/2000/svg" viewBox="0 0 602 123">
  <title>Artboard 1</title>
  <g>
    <path d="M387.37,33.83C403,20.1,414.48,20.64,423.74,35.19c1.42-1.66,2.7-3.39,4.22-4.89,5.67-5.56,12.44-7.51,20.17-5.62s11.79,7.64,13.73,15a32.82,32.82,0,0,1,1.07,7.89c.13,11.33,0,22.66.11,34,0,2.25-.08,3.55-3.08,3.56-7.49,0-7.42.24-7.51-7.22-.13-10.66.58-21.34-.43-32-.79-8.34-5.42-13-12.35-13-6.75,0-12.54,5.55-13.51,13a35.5,35.5,0,0,0-.14,4.5c0,10.16-.2,20.33.09,30.49.1,3.69-1.17,4.71-4.48,4.13-2.6-.45-6.52,1.88-6.27-4,.4-9.32.12-18.66.1-28,0-2.17,0-4.34-.23-6.49-.75-8.52-5-13.43-11.71-13.65-7.11-.23-13.4,5.34-14.61,13.07a38.42,38.42,0,0,0-.36,6c0,9.33-.26,18.67.09,28,.16,4.22-1.06,5.14-5.18,5.23-4.62.11-5.63-1.27-5.59-5.72.19-17.16,0-34.32-.25-51.48,0-2.53.76-3.65,3-2.91s6.13-2.8,6.46,2.53C387.16,29.54,387.25,31.48,387.37,33.83Z" style="fill: #070707"/>
    <path d="M95,33.26a21.38,21.38,0,0,1,.36-3.15c.49-1.65-.73-4.27,1.29-4.86,2.3-.68,5-.34,7.44-.16,1.36.11,1,1.48,1,2.41-.11,17.83.31,35.68-.49,53.48-1,21.21-13.72,31.35-34.89,28.83a42.72,42.72,0,0,1-11.57-3c-2.37-1-3-2.13-2.25-4.87,1.09-3.92,2.46-5,6.31-3,4,2.12,8.63,2.42,13.15,2.38,12-.12,18.38-6.57,18.68-18.62,0-2.11,0-4.22,0-7.58-4.71,6.38-10.24,9.32-17,9.76-12.19.8-22.29-6.71-25.75-19.2a38.91,38.91,0,0,1,.92-23.6C58.55,23.93,81.54,16.74,95,33.26ZM94,55.25c0-2.71,0-4.71,0-6.7C93.75,41,88.89,34.56,82.28,33c-7.37-1.7-14.6,1.3-18.14,8.12A28.55,28.55,0,0,0,63.8,68a15.65,15.65,0,0,0,15.53,8.76c6.69-.64,11.82-5.1,13.91-11.8C94.32,61.48,93.8,58,94,55.25Z" style="fill: #070707"/>
    <path d="M187.86,57c-6,0-12,.13-18-.06-2.63-.08-3,.93-2.71,3.2,1.17,10.52,8.45,17.21,19.52,17.61a41.43,41.43,0,0,0,14.27-2.07c1.39-.45,3-1.66,3.19,1,.19,2.16,2.92,4.59-.53,6.46-12.84,6.94-33.91,2.75-41.52-8.24-9-13-6.55-35,5.31-44.85,8.12-6.72,17.51-8.06,27.18-4,10,4.13,13.13,13,14.34,22.87.18,1.48,0,3,.1,4.49.25,2.76-.74,3.81-3.65,3.7C199.53,56.86,193.69,57,187.86,57Zm-5.15-7.86c4.16,0,8.34-.18,12.49.06,2.87.16,3.27-.93,3-3.48-.83-8.5-6.43-13.9-14.69-13.85-7.91.05-15.25,7.13-16,15.1-.19,2.1.7,2.18,2.18,2.17Z" style="fill: #070707"/>
    <path d="M249.93,57c-5.83,0-11.67.15-17.5-.06-2.92-.11-3.68.72-3.24,3.63,1.62,10.65,8.76,17,19.91,17.19a39,39,0,0,0,13.76-2.09c1.81-.64,3.26-1.27,3.38,1.43.09,2.11,3.06,4.77-1.05,6.18-11,3.79-28.29,5-38.19-4.88-8.68-8.65-10.92-25.26-5-38.38,5.72-12.75,18.95-18.91,32.25-15C265.1,28.21,274,44.53,271,55.33c-.65,2.27-2.19,1.64-3.52,1.65C261.6,57.05,255.76,57,249.93,57Zm-5.36-7.86c4,0,8-.27,12,.08,3.77.33,4-1.35,3.56-4.35-1.27-8.62-7.22-13.54-15.94-12.94-7.13.49-14.59,8.45-14.69,15.39,0,2.39,1.45,1.77,2.6,1.79C236.24,49.19,240.4,49.15,244.57,49.15Z" style="fill: #070707"/>
    <path d="M507.8,57c-5.84,0-11.68.19-17.5-.07-3.21-.15-3.48,1.13-3.07,3.77,1.64,10.52,8.56,16.69,19.51,17.05A40.93,40.93,0,0,0,521,75.66c1.47-.49,3-1.5,3.15,1.1.15,2.15,2.93,4.57-.61,6.42C510.67,89.92,490,86,482.31,75.27c-8.9-12.43-7.07-34,4-44.26,7.93-7.34,17.39-9,27.39-5.34,10.4,3.79,13.81,12.74,15.16,22.79.25,1.8,0,3.66.12,5.49.16,2.38-.82,3.16-3.2,3.11C519.8,56.92,513.8,57,507.8,57Zm-5-7.86c4.33,0,8.66,0,13,0,1.44,0,2.4,0,2.53-2,.47-7.32-5.62-14.59-13-15.16-8.64-.67-15.34,4.71-17.55,13.68-.76,3.09.16,3.71,3,3.57C494.84,49,498.84,49.15,502.84,49.15Z" style="fill: #070707"/>
    <path d="M293.77,34.69c6.49-8.59,14.28-11.89,23.75-10.39,8.77,1.4,15.06,7.88,16.43,17.16,2,13.73.47,27.59.92,41.38.06,1.85-.88,2.24-2.45,2.18a30.65,30.65,0,0,0-5,0c-2.94.38-3.56-.87-3.51-3.6.15-9.65.08-19.31.05-29a42.25,42.25,0,0,0-.32-6.47c-1.39-8.82-6.4-13.33-14.19-13A15.36,15.36,0,0,0,295,48c-.24,11-.39,22,0,33,.22,5.77-3.51,3.71-6.18,4-3.08.35-5,.23-5-4.19.26-17.64,0-35.29-.2-52.93,0-2.06.32-3.58,2.52-2.8s6.3-2.73,7,2.48C293.39,29.52,293.49,31.51,293.77,34.69Z" style="fill: #070707"/>
    <path d="M132.22,35.44c3.27-6.29,7.77-10.89,15.2-11.43,2.15-.15,5-.45,3.87,3-.8,2.43,3.39,7.08-3.18,7.25-8.82.23-14.74,6.65-15.08,16.57s-.3,19.67-.1,29.49c.08,3.52-.51,5-4.51,4.79-6.42-.35-6.41-.06-6.44-6.68-.07-16.83-.09-33.66-.34-50.48,0-2.56.78-3.61,3-2.88s6.15-2.78,6.46,2.49c.14,2.45,0,4.9,0,7.36Z" style="fill: #070707"/>
    <path d="M365,78.28c0,4.5-3.11,7.73-7.4,7.72a7.75,7.75,0,0,1,.07-15.48C362,70.52,365,73.73,365,78.28Z" style="fill: #0cc707"/>
  </g>
</svg>
